<?xml version="1.0" encoding="UTF-8" standalone="no"?>
<!DOCTYPE svg PUBLIC "-//W3C//DTD SVG 1.1//EN" "http://www.w3.org/Graphics/SVG/1.1/DTD/svg11.dtd">
<svg width="100%" height="100%" viewBox="0 0 800 800" version="1.1" xmlns="http://www.w3.org/2000/svg" xmlns:xlink="http://www.w3.org/1999/xlink" xml:space="preserve" xmlns:serif="http://www.serif.com/" style="fill-rule:evenodd;clip-rule:evenodd;stroke-linejoin:round;stroke-miterlimit:2;">
    <g transform="matrix(1,0,0,1,-3931,-809)">
        <g transform="matrix(2.02015,0,0,2.02017,3644.28,252.584)">
            <rect x="142.327" y="275.741" width="396.011" height="396.011" style="fill:none;"/>
            <g transform="matrix(1,0,0,1,30.9966,8.81073e-13)">
                <g transform="matrix(0.495014,0,0,0.495007,1.98504,-122.442)">
                    <rect x="418.362" y="911.737" width="452" height="585.333" style="fill:url(#_Linear1);"/>
                </g>
                <g transform="matrix(1,0,0,1,0,5.18954)">
                    <g transform="matrix(0.212971,0,0,0.495007,229.764,-74.6923)">
                        <rect x="471.386" y="1169.46" width="336.367" height="40.171" style="fill:url(#_Linear2);"/>
                    </g>
                    <g transform="matrix(0.212971,0,0,0.543205,229.764,-84.5917)">
                        <rect x="471.386" y="1169.46" width="336.367" height="40.171" style="fill:url(#_Linear3);"/>
                    </g>
                </g>
                <g transform="matrix(1,0,0,1,-0.0097289,31.3268)">
                    <g transform="matrix(0.495014,0,0,0.495007,-5.35322,-125.031)">
                        <rect x="478.444" y="1203.96" width="166.742" height="166.742" style="fill:url(#_Linear4);"/>
                    </g>
                    <g transform="matrix(0.495014,0,0,0.495007,-5.35322,-125.031)">
                        <path d="M478.444,1320.66C478.444,1320.66 498.255,1294.34 530.952,1287.33C568.285,1279.33 574.617,1302.53 604.285,1320.66C628.285,1335.33 645.186,1320.66 645.186,1320.66L645.186,1370.7L478.444,1370.7L478.444,1320.66Z" style="fill:url(#_Linear5);"/>
                    </g>
                </g>
                <g transform="matrix(0.434616,0,0,0.262501,4.01959,89.5428)">
                    <rect x="418.362" y="911.737" width="452" height="585.333" style="fill:url(#_Linear6);"/>
                </g>
                <g transform="matrix(0.495007,0,0,0.495007,6.26609,-294.548)">
                    <g transform="matrix(166.667,0,0,166.667,388.128,1482.53)">
                        <path d="M0.35,-0.767L0.086,-0.767L0.086,0.054L0.224,0.054L0.224,-0.241L0.333,-0.241C0.505,-0.241 0.635,-0.354 0.635,-0.503C0.635,-0.652 0.506,-0.767 0.35,-0.767ZM0.224,-0.371L0.224,-0.637L0.35,-0.637C0.431,-0.637 0.496,-0.579 0.496,-0.503C0.496,-0.426 0.432,-0.371 0.333,-0.371L0.224,-0.371Z" style="fill:white;fill-rule:nonzero;"/>
                    </g>
                    <g transform="matrix(166.667,0,0,166.667,503.295,1482.53)">
                        <path d="M0.321,-0.767L0.086,-0.767L0.086,0.054L0.321,0.054C0.523,0.054 0.654,-0.091 0.654,-0.293L0.654,-0.43C0.654,-0.631 0.523,-0.767 0.321,-0.767ZM0.225,-0.077L0.225,-0.637L0.321,-0.637C0.445,-0.637 0.515,-0.549 0.515,-0.43L0.515,-0.293C0.515,-0.175 0.447,-0.077 0.321,-0.077L0.225,-0.077Z" style="fill:white;fill-rule:nonzero;"/>
                    </g>
                    <g transform="matrix(166.667,0,0,166.667,626.628,1482.53)">
                        <path d="M0.606,-0.637L0.606,-0.767L0.086,-0.767L0.086,0.054L0.225,0.054L0.225,-0.299L0.558,-0.299L0.558,-0.429L0.225,-0.429L0.225,-0.637L0.606,-0.637Z" style="fill:white;fill-rule:nonzero;"/>
                    </g>
                </g>
            </g>
        </g>
    </g>
    <defs>
        <linearGradient id="_Linear1" x1="0" y1="0" x2="1" y2="0" gradientUnits="userSpaceOnUse" gradientTransform="matrix(452,0,0,585.333,418.362,1204.4)"><stop offset="0" style="stop-color:rgb(239,246,251);stop-opacity:1"/><stop offset="1" style="stop-color:rgb(227,227,228);stop-opacity:1"/></linearGradient>
        <linearGradient id="_Linear2" x1="0" y1="0" x2="1" y2="0" gradientUnits="userSpaceOnUse" gradientTransform="matrix(1375.19,0,0,238.449,-567.436,1289.29)"><stop offset="0" style="stop-color:rgb(196,14,67);stop-opacity:1"/><stop offset="1" style="stop-color:rgb(255,164,186);stop-opacity:1"/></linearGradient>
        <linearGradient id="_Linear3" x1="0" y1="0" x2="1" y2="0" gradientUnits="userSpaceOnUse" gradientTransform="matrix(1375.19,0,0,217.292,-567.436,1189.55)"><stop offset="0" style="stop-color:rgb(196,14,67);stop-opacity:1"/><stop offset="1" style="stop-color:rgb(255,164,186);stop-opacity:1"/></linearGradient>
        <linearGradient id="_Linear4" x1="0" y1="0" x2="1" y2="0" gradientUnits="userSpaceOnUse" gradientTransform="matrix(413.333,0,0,413.333,433.186,1287.33)"><stop offset="0" style="stop-color:rgb(196,14,67);stop-opacity:1"/><stop offset="1" style="stop-color:rgb(255,164,186);stop-opacity:1"/></linearGradient>
        <linearGradient id="_Linear5" x1="0" y1="0" x2="1" y2="0" gradientUnits="userSpaceOnUse" gradientTransform="matrix(412.165,0,0,203.145,235.719,1328.94)"><stop offset="0" style="stop-color:rgb(196,14,67);stop-opacity:1"/><stop offset="1" style="stop-color:rgb(255,164,186);stop-opacity:1"/></linearGradient>
        <linearGradient id="_Linear6" x1="0" y1="0" x2="1" y2="0" gradientUnits="userSpaceOnUse" gradientTransform="matrix(758.229,0,0,981.896,418.362,1204.4)"><stop offset="0" style="stop-color:rgb(196,14,67);stop-opacity:1"/><stop offset="1" style="stop-color:rgb(255,164,186);stop-opacity:1"/></linearGradient>
    </defs>
</svg>
