<?xml version="1.0" encoding="UTF-8" standalone="no"?>
<!DOCTYPE svg PUBLIC "-//W3C//DTD SVG 1.1//EN" "http://www.w3.org/Graphics/SVG/1.1/DTD/svg11.dtd">
<svg width="100%" height="100%" viewBox="0 0 800 800" version="1.1" xmlns="http://www.w3.org/2000/svg" xmlns:xlink="http://www.w3.org/1999/xlink" xml:space="preserve" xmlns:serif="http://www.serif.com/" style="fill-rule:evenodd;clip-rule:evenodd;stroke-linejoin:round;stroke-miterlimit:2;">
    <g transform="matrix(1,0,0,1,-235,-809)">
        <g transform="matrix(2.02015,0,0,2.02017,-51.8034,252.584)">
            <rect x="142.327" y="275.741" width="396.011" height="396.011" style="fill:none;"/>
            <g transform="matrix(0.495014,0,0,0.495007,25.6434,-141.723)">
                <path d="M369.754,1031.06L369.754,1451.61C369.754,1462.4 378.517,1471.16 389.31,1471.16L882.127,1471.16C892.921,1471.16 901.684,1462.4 901.684,1451.61L901.684,1099.59C901.684,1088.8 892.921,1080.04 882.127,1080.04L610.718,1080.04L610.718,1031.06C610.718,1022.5 603.766,1015.55 595.204,1015.55L385.267,1015.55C376.705,1015.55 369.754,1022.5 369.754,1031.06Z" style="fill:url(#_Linear1);"/>
            </g>
            <g transform="matrix(0.495014,0,0,0.495007,25.6434,-141.228)">
                <rect x="399.3" y="1110.14" width="468" height="133.217" style="fill:url(#_Linear2);"/>
            </g>
            <g transform="matrix(0.493113,-0.0433334,0.043334,0.493107,-24.1463,-105.609)">
                <rect x="399.3" y="1110.14" width="468" height="133.217" style="fill:white;"/>
            </g>
            <g transform="matrix(0.495014,0,0,0.495007,25.6434,-125.031)">
                <path d="M901.684,1143.1C901.684,1132.73 893.265,1124.32 882.896,1124.32L388.541,1124.32C378.172,1124.32 369.754,1132.73 369.754,1143.1L369.754,1418.65C369.754,1429.02 378.172,1437.44 388.541,1437.44L882.896,1437.44C893.265,1437.44 901.684,1429.02 901.684,1418.65L901.684,1143.1Z" style="fill:url(#_Linear3);"/>
            </g>
            <g>
                <g transform="matrix(0.495014,0,0,0.495007,25.6434,-125.031)">
                    <path d="M635.719,1225.59C635.719,1216.78 628.569,1209.63 619.762,1209.63L342.726,1209.63C333.92,1209.63 326.77,1216.78 326.77,1225.59L326.77,1353.24C326.77,1362.05 333.92,1369.2 342.726,1369.2L619.762,1369.2C628.569,1369.2 635.719,1362.05 635.719,1353.24L635.719,1225.59Z" style="fill:url(#_Linear4);"/>
                </g>
                <g transform="matrix(0.495007,0,0,0.495007,70.7168,-110.738)">
                    <g transform="matrix(111.111,0,0,111.111,295.583,1298.82)">
                        <path d="M0.642,-0.767L0.06,-0.767L0.06,-0.637L0.464,-0.637L0.06,-0.079L0.06,0.054L0.642,0.054L0.642,-0.077L0.234,-0.077L0.642,-0.638L0.642,-0.767Z" style="fill:white;fill-rule:nonzero;"/>
                    </g>
                    <g transform="matrix(111.111,0,0,111.111,373.583,1298.82)">
                        <rect x="0.086" y="-0.767" width="0.138" height="0.821" style="fill:white;fill-rule:nonzero;"/>
                    </g>
                    <g transform="matrix(111.111,0,0,111.111,408.028,1298.82)">
                        <path d="M0.35,-0.767L0.086,-0.767L0.086,0.054L0.224,0.054L0.224,-0.241L0.333,-0.241C0.505,-0.241 0.635,-0.354 0.635,-0.503C0.635,-0.652 0.506,-0.767 0.35,-0.767ZM0.224,-0.371L0.224,-0.637L0.35,-0.637C0.431,-0.637 0.496,-0.579 0.496,-0.503C0.496,-0.426 0.432,-0.371 0.333,-0.371L0.224,-0.371Z" style="fill:white;fill-rule:nonzero;"/>
                    </g>
                </g>
            </g>
            <g transform="matrix(0.564306,0,0,0.599459,-1483.55,-2921.31)">
                <g transform="matrix(1,0,0,1,1.81899e-12,1122.08)">
                    <path d="M3317.08,4632.95L3273.72,4632.95L3273.72,4785.16L3498.72,4785.16L3498.72,4632.95L3455.37,4632.95C3455.4,4632.12 3455.41,4631.29 3455.41,4630.45C3455.41,4592.27 3424.41,4561.27 3386.22,4561.27C3348.04,4561.27 3317.04,4592.27 3317.04,4630.45C3317.04,4631.29 3317.05,4632.12 3317.08,4632.95ZM3425.69,4632.95L3346.76,4632.95C3346.71,4632.13 3346.68,4631.29 3346.68,4630.45C3346.68,4608.63 3364.4,4590.91 3386.22,4590.91C3408.05,4590.91 3425.77,4608.63 3425.77,4630.45C3425.77,4631.29 3425.74,4632.13 3425.69,4632.95Z" style="fill:url(#_Linear5);"/>
                </g>
                <g transform="matrix(1,0,0,1,1.81899e-12,1112.08)">
                    <path d="M3373.3,4739.05C3360.83,4733.95 3352.04,4721.69 3352.04,4707.4C3352.04,4688.53 3367.36,4673.21 3386.22,4673.21C3405.09,4673.21 3420.41,4688.53 3420.41,4707.4C3420.41,4721.69 3411.62,4733.95 3399.16,4739.05L3399.16,4771.09L3373.3,4771.09L3373.3,4739.05Z" style="fill:url(#_Linear6);"/>
                </g>
            </g>
        </g>
    </g>
    <defs>
        <linearGradient id="_Linear1" x1="0" y1="0" x2="1" y2="0" gradientUnits="userSpaceOnUse" gradientTransform="matrix(-2.41862,594.089,4.83723,0.019693,635.719,1015.55)"><stop offset="0" style="stop-color:rgb(238,238,185);stop-opacity:1"/><stop offset="1" style="stop-color:rgb(225,169,45);stop-opacity:1"/></linearGradient>
        <linearGradient id="_Linear2" x1="0" y1="0" x2="1" y2="0" gradientUnits="userSpaceOnUse" gradientTransform="matrix(-531.93,455.612,-129.69,-151.414,901.684,1014.55)"><stop offset="0" style="stop-color:rgb(235,223,204);stop-opacity:1"/><stop offset="1" style="stop-color:rgb(180,167,167);stop-opacity:1"/></linearGradient>
        <linearGradient id="_Linear3" x1="0" y1="0" x2="1" y2="0" gradientUnits="userSpaceOnUse" gradientTransform="matrix(665.965,485.324,-285.69,392.026,369.754,1124.31)"><stop offset="0" style="stop-color:rgb(225,169,45);stop-opacity:1"/><stop offset="1" style="stop-color:rgb(238,238,185);stop-opacity:1"/></linearGradient>
        <linearGradient id="_Linear4" x1="0" y1="0" x2="1" y2="0" gradientUnits="userSpaceOnUse" gradientTransform="matrix(9.77069e-15,-159.567,82.4141,5.04641e-15,481.244,1369.2)"><stop offset="0" style="stop-color:rgb(49,55,63);stop-opacity:1"/><stop offset="1" style="stop-color:rgb(101,105,116);stop-opacity:1"/></linearGradient>
        <linearGradient id="_Linear5" x1="0" y1="0" x2="1" y2="0" gradientUnits="userSpaceOnUse" gradientTransform="matrix(225,0,0,223.891,3273.72,4673.21)"><stop offset="0" style="stop-color:rgb(0,149,217);stop-opacity:1"/><stop offset="0.24" style="stop-color:rgb(36,167,206);stop-opacity:1"/><stop offset="1" style="stop-color:rgb(150,225,170);stop-opacity:1"/></linearGradient>
        <linearGradient id="_Linear6" x1="0" y1="0" x2="1" y2="0" gradientUnits="userSpaceOnUse" gradientTransform="matrix(1.35652e-14,208.543,-336.877,1.94179e-14,3386.22,4673.21)"><stop offset="0" style="stop-color:rgb(49,55,63);stop-opacity:1"/><stop offset="1" style="stop-color:rgb(101,105,116);stop-opacity:1"/></linearGradient>
    </defs>
</svg>
