<?xml version="1.0" encoding="UTF-8" standalone="no"?>
<!DOCTYPE svg PUBLIC "-//W3C//DTD SVG 1.1//EN" "http://www.w3.org/Graphics/SVG/1.1/DTD/svg11.dtd">
<svg width="100%" height="100%" viewBox="0 0 800 800" version="1.1" xmlns="http://www.w3.org/2000/svg" xmlns:xlink="http://www.w3.org/1999/xlink" xml:space="preserve" xmlns:serif="http://www.serif.com/" style="fill-rule:evenodd;clip-rule:evenodd;stroke-linejoin:round;stroke-miterlimit:2;">
    <g transform="matrix(1,0,0,1,-3931,-809)">
        <g transform="matrix(2.02015,0,0,2.02017,3644.28,252.584)">
            <rect x="142.327" y="275.741" width="396.011" height="396.011" style="fill:none;"/>
            <g transform="matrix(1,0,0,1,30.9966,8.81073e-13)">
                <g transform="matrix(0.495014,0,0,0.495007,1.98504,-122.442)">
                    <rect x="418.362" y="911.737" width="452" height="585.333" style="fill:url(#_Linear1);"/>
                </g>
                <g transform="matrix(0.495014,0,0,0.495007,4.35746,-161.751)">
                    <rect x="471.386" y="1169.46" width="336.367" height="40.171" style="fill:url(#_Linear2);"/>
                </g>
                <g transform="matrix(0.495014,0,0,0.495007,4.35746,-207.249)">
                    <rect x="471.386" y="1169.46" width="336.367" height="40.171" style="fill:url(#_Linear3);"/>
                </g>
                <g transform="matrix(0.495014,0,0,0.495007,4.35746,-70.7543)">
                    <rect x="471.386" y="1169.46" width="336.367" height="40.171" style="fill:url(#_Linear4);"/>
                </g>
                <g transform="matrix(0.495014,0,0,0.495007,4.35746,-116.252)">
                    <rect x="471.386" y="1169.46" width="336.367" height="40.171" style="fill:url(#_Linear5);"/>
                </g>
                <g transform="matrix(0.374138,0,0,0.543205,61.3365,-81.6216)">
                    <rect x="471.386" y="1169.46" width="336.367" height="40.171" style="fill:url(#_Linear6);"/>
                </g>
                <g transform="matrix(0.34038,0,0,0.262501,43.4444,89.5428)">
                    <rect x="418.362" y="911.737" width="452" height="585.333" style="fill:url(#_Linear7);"/>
                </g>
                <g transform="matrix(0.495007,0,0,0.495007,6.2664,-294.548)">
                    <g transform="matrix(166.667,0,0,166.667,434.103,1482.53)">
                        <path d="M0.857,-0.767L0.712,-0.201L0.567,-0.767L0.443,-0.767L0.297,-0.202L0.153,-0.767L0.01,-0.767L0.235,0.054L0.359,0.054L0.505,-0.491L0.649,0.054L0.774,0.054L0.999,-0.767L0.857,-0.767Z" style="fill:white;fill-rule:nonzero;"/>
                    </g>
                </g>
            </g>
        </g>
    </g>
    <defs>
        <linearGradient id="_Linear1" x1="0" y1="0" x2="1" y2="0" gradientUnits="userSpaceOnUse" gradientTransform="matrix(452,0,0,585.333,418.362,1204.4)"><stop offset="0" style="stop-color:rgb(239,246,251);stop-opacity:1"/><stop offset="1" style="stop-color:rgb(227,227,228);stop-opacity:1"/></linearGradient>
        <linearGradient id="_Linear2" x1="0" y1="0" x2="1" y2="0" gradientUnits="userSpaceOnUse" gradientTransform="matrix(506.419,0,0,87.8098,92.082,1417.7)"><stop offset="0" style="stop-color:rgb(0,64,153);stop-opacity:1"/><stop offset="1" style="stop-color:rgb(147,196,233);stop-opacity:1"/></linearGradient>
        <linearGradient id="_Linear3" x1="0" y1="0" x2="1" y2="0" gradientUnits="userSpaceOnUse" gradientTransform="matrix(506.419,0,0,87.8098,92.082,1509.62)"><stop offset="0" style="stop-color:rgb(0,64,153);stop-opacity:1"/><stop offset="1" style="stop-color:rgb(147,196,233);stop-opacity:1"/></linearGradient>
        <linearGradient id="_Linear4" x1="0" y1="0" x2="1" y2="0" gradientUnits="userSpaceOnUse" gradientTransform="matrix(506.419,0,0,87.8098,92.082,1233.88)"><stop offset="0" style="stop-color:rgb(0,64,153);stop-opacity:1"/><stop offset="1" style="stop-color:rgb(147,196,233);stop-opacity:1"/></linearGradient>
        <linearGradient id="_Linear5" x1="0" y1="0" x2="1" y2="0" gradientUnits="userSpaceOnUse" gradientTransform="matrix(506.419,0,0,87.8098,92.082,1325.79)"><stop offset="0" style="stop-color:rgb(0,64,153);stop-opacity:1"/><stop offset="1" style="stop-color:rgb(147,196,233);stop-opacity:1"/></linearGradient>
        <linearGradient id="_Linear6" x1="0" y1="0" x2="1" y2="0" gradientUnits="userSpaceOnUse" gradientTransform="matrix(670.032,0,0,80.0185,-30.4624,1144.4)"><stop offset="0" style="stop-color:rgb(0,64,153);stop-opacity:1"/><stop offset="1" style="stop-color:rgb(147,196,233);stop-opacity:1"/></linearGradient>
        <linearGradient id="_Linear7" x1="0" y1="0" x2="1" y2="0" gradientUnits="userSpaceOnUse" gradientTransform="matrix(758.229,0,0,981.896,418.362,1204.4)"><stop offset="0" style="stop-color:rgb(0,64,153);stop-opacity:1"/><stop offset="1" style="stop-color:rgb(147,196,233);stop-opacity:1"/></linearGradient>
    </defs>
</svg>
